<?xml version="1.0" encoding="utf-8"?>
<!-- Generator: Adobe Illustrator 27.5.0, SVG Export Plug-In . SVG Version: 6.00 Build 0)  -->
<svg version="1.1" xmlns="http://www.w3.org/2000/svg" xmlns:xlink="http://www.w3.org/1999/xlink" x="0px" y="0px"
	 viewBox="0 0 750 500" style="enable-background:new 0 0 750 500;" xml:space="preserve">
<g id="BACKGROUND">
	<linearGradient id="SVGID_1_" gradientUnits="userSpaceOnUse" x1="677.6493" y1="42.7438" x2="42.6401" y2="477.6006">
		<stop  offset="0" style="stop-color:#332737"/>
		<stop  offset="1" style="stop-color:#130517"/>
	</linearGradient>
	<rect x="-0.001" style="fill:url(#SVGID_1_);" width="750" height="500"/>
</g>
<g id="OBJECTS">
	<g>
		<defs>
			<rect id="SVGID_00000178169603734496517630000008019556315327078311_" x="-0.001" width="750" height="500"/>
		</defs>
		<clipPath id="SVGID_00000025428236367232909840000012168851132423571642_">
			<use xlink:href="#SVGID_00000178169603734496517630000008019556315327078311_"  style="overflow:visible;"/>
		</clipPath>
		
			<linearGradient id="SVGID_00000040575353045996312490000010635269220402014346_" gradientUnits="userSpaceOnUse" x1="-204.0193" y1="84.5257" x2="166.7148" y2="412.5627" gradientTransform="matrix(0.9965 -0.084 0.084 0.9965 -20.261 18.6059)">
			<stop  offset="0" style="stop-color:#332737"/>
			<stop  offset="1" style="stop-color:#130517"/>
		</linearGradient>
		
			<path style="clip-path:url(#SVGID_00000025428236367232909840000012168851132423571642_);fill:url(#SVGID_00000040575353045996312490000010635269220402014346_);" d="
			M43.738-49.736C72.424,3.013,8.94,110.477,43.696,169.94s146.84,15.601,191.245,176.929
			c47.335,171.975,260.303,161.473,260.303,161.473L-77.95,586.718l-50.884-603.845"/>
		
			<linearGradient id="SVGID_00000115494811633649426660000001255797863010528658_" gradientUnits="userSpaceOnUse" x1="-129.8302" y1="268.8188" x2="495.3789" y2="268.8188">
			<stop  offset="0" style="stop-color:#6AE7E9"/>
			<stop  offset="1" style="stop-color:#4AA2DA"/>
		</linearGradient>
		
			<path style="clip-path:url(#SVGID_00000025428236367232909840000012168851132423571642_);fill:none;stroke:url(#SVGID_00000115494811633649426660000001255797863010528658_);stroke-width:2;stroke-miterlimit:10;" d="
			M43.738-49.736C72.424,3.013,8.94,110.477,43.696,169.94s146.84,15.601,191.245,176.929
			c47.335,171.975,260.303,161.473,260.303,161.473L-77.95,586.718l-50.884-603.845"/>
		
			<linearGradient id="SVGID_00000124151293753825174930000007168484403284637843_" gradientUnits="userSpaceOnUse" x1="-98.9752" y1="255.1559" x2="526.1982" y2="255.1559" gradientTransform="matrix(0.9993 0.0378 -0.0378 0.9993 10.9226 -7.9484)">
			<stop  offset="0" style="stop-color:#6AE7E9"/>
			<stop  offset="1" style="stop-color:#4AA2DA"/>
		</linearGradient>
		
			<path style="clip-path:url(#SVGID_00000025428236367232909840000012168851132423571642_);fill:none;stroke:url(#SVGID_00000124151293753825174930000007168484403284637843_);stroke-width:2;stroke-miterlimit:10;" d="
			M116.385-67.813c26.669,53.797-69.379,158.533-36.899,219.269s146.144,21.148,184.411,184.041
			c40.792,173.643,254.004,171.21,254.004,171.21l-575.749,56.625L-85.839-42.006"/>
		
			<linearGradient id="SVGID_00000183940686703209895860000008718793263614269868_" gradientUnits="userSpaceOnUse" x1="-47.5612" y1="213.7235" x2="190.496" y2="521.798">
			<stop  offset="0" style="stop-color:#332737"/>
			<stop  offset="1" style="stop-color:#130517"/>
		</linearGradient>
		
			<path style="clip-path:url(#SVGID_00000025428236367232909840000012168851132423571642_);fill:url(#SVGID_00000183940686703209895860000008718793263614269868_);" d="
			M-36.681-48.81c26.277,12.587,4.596,93.592,2.821,115.299c-4.204,51.427,3.358,90.454,47.927,120.416
			c41.583,27.954,88.579,46.313,122.311,84.917c25.115,28.742,36.921,72.344,48.548,108.113
			c18.857,58.016,44.261,118.629,92.277,159.318c15.203,12.883,178.328,104.508,127.807,134.554
			c-15.888,9.449-48.737,5.168-66.136,2.636c-33.777-4.914-62.212-16.675-88.534-38.717c-26.99-22.602-40.6-54.432-65.434-78.874
			c-32.643-32.127-76.525-56.529-118.128-74.655c-80.042-34.875-168.342-56.433-222.176-130.817
			c-35.612-49.207-51.34-105.868-52.22-166.07"/>
		
			<linearGradient id="SVGID_00000009571055371630106060000010595714483114320265_" gradientUnits="userSpaceOnUse" x1="-60.2338" y1="107.9523" x2="106.8064" y2="499.0465">
			<stop  offset="0" style="stop-color:#332737"/>
			<stop  offset="1" style="stop-color:#130517"/>
		</linearGradient>
		
			<path style="clip-path:url(#SVGID_00000025428236367232909840000012168851132423571642_);fill:url(#SVGID_00000009571055371630106060000010595714483114320265_);" d="
			M-54.142,40.039c26.748,11.555,13.447,69.618,12.519,91.378c-2.198,51.552,6.878,90.255,52.58,118.459
			c42.64,26.313,90.315,42.829,125.525,80.09c26.215,27.743,39.71,70.852,52.72,106.141c21.102,57.238,48.847,116.815,98.41,155.604
			c15.693,12.282,182.262,97.485,132.949,129.475c-15.508,10.06-48.498,7.062-65.983,5.21c-33.943-3.595-62.814-14.24-89.975-35.241
			c-27.85-21.534-42.688-52.809-68.456-76.266c-33.869-30.831-78.668-53.506-120.946-69.999
			C-6.138,513.157-95.21,495.053-151.899,422.822c-37.501-47.783-55.423-103.789-58.647-163.91"/>
		
			<linearGradient id="SVGID_00000070085130355341166660000016734244321722868864_" gradientUnits="userSpaceOnUse" x1="535.9265" y1="-52.0473" x2="327.2435" y2="332.8098">
			<stop  offset="0" style="stop-color:#332737"/>
			<stop  offset="1" style="stop-color:#130517"/>
		</linearGradient>
		
			<path style="clip-path:url(#SVGID_00000025428236367232909840000012168851132423571642_);fill:url(#SVGID_00000070085130355341166660000016734244321722868864_);" d="
			M-65.146-187.003C37.837-121.569,254.758-52.835,244.737,69.059c-8.034,97.719-32.039,160.178,45.373,236.421
			c75.505,74.365,192.559,74.462,272.221,143.472c46.076,39.915,76.146,112.272,135.791,132.985
			c30.275,10.513,67.589-15.872,99.415-13.461c25.007,1.894,51.119-3.018,75.877,0.542c-29.475-13.098-44.278-66.27-50.852-94.166
			c-11.676-49.544-20.376-97.228-12.49-147.969c9.108-58.599,40.127-112.352,49.839-170.556
			c8.146-48.822-7.374-81.088-43.917-111.075c-36.77-30.174-82.384-48.757-124.285-70.687
			c-42.401-22.192-81.651-46.431-114.512-81.707c-33.137-35.573-56.032-67.945-98.363-94.822"/>
		
			<linearGradient id="SVGID_00000102545108815698602850000013442908479217078186_" gradientUnits="userSpaceOnUse" x1="651.8415" y1="-87.5029" x2="343.7673" y2="485.6352">
			<stop  offset="0" style="stop-color:#332737"/>
			<stop  offset="1" style="stop-color:#130517"/>
		</linearGradient>
		
			<path style="clip-path:url(#SVGID_00000025428236367232909840000012168851132423571642_);fill:url(#SVGID_00000102545108815698602850000013442908479217078186_);" d="
			M56.243-195.388C170.797-153.384,250.674-63.002,266.839,58.23c12.959,97.189,25.873,211.42,117.746,269.43
			c89.609,56.581,203.998,31.75,296.528,82.215c53.519,29.189,96.405,63.366,159.093,70.902c31.82,3.825,64.56,0.217,96.17-4.204
			c24.837-3.474,49.304-13.834,74.252-15.628c-31.588-6.522-57.374-55.321-69.737-81.178
			c-21.958-45.921-40.613-90.659-43.712-141.915c-3.579-59.195,15.283-118.32,12.377-177.257
			c-2.437-49.437-24.472-77.658-66.562-99.176c-42.352-21.653-90.877-30.096-136.486-42.601
			c-46.154-12.654-89.665-27.98-129.284-55.449c-39.952-27.7-69.215-54.455-116.299-71.702"/>
		
			<linearGradient id="SVGID_00000034082209650843259990000003243430061316418974_" gradientUnits="userSpaceOnUse" x1="725.942" y1="-109.126" x2="617.916" y2="288.9699">
			<stop  offset="0" style="stop-color:#332737"/>
			<stop  offset="1" style="stop-color:#130517"/>
		</linearGradient>
		
			<path style="clip-path:url(#SVGID_00000025428236367232909840000012168851132423571642_);fill:url(#SVGID_00000034082209650843259990000003243430061316418974_);" d="
			M541.024-274.332C417.589-117.78,319.734-38.751,309.876,95.975c-4.81,65.729,29.058,134.078,112.425,157.272
			c53.766,14.958,113.317-1.626,168.32,7.391c56.105,9.198,96.151,45.531,144.925,71.096
			c70.883,37.154,149.812,29.709,207.701-30.181c63.902-66.111,105.162-184.898,67.941-273.261
			c-17.079-40.546-53.275-66.417-87.551-91.622c-43.233-31.791-69.197-72.134-104.283-111.476
			c-31.415-35.225-58.984-53.717-103.954-67.957c-40.823-12.927-86.756-18.829-128.18-4.843"/>
		
			<linearGradient id="SVGID_00000132046259947622852530000009864048382767292564_" gradientUnits="userSpaceOnUse" x1="739.9804" y1="-302.6923" x2="631.9557" y2="95.3987" gradientTransform="matrix(0.9015 0.4328 -0.4328 0.9015 17.8684 -359.8026)">
			<stop  offset="0" style="stop-color:#6AE7E9"/>
			<stop  offset="1" style="stop-color:#4AA2DA"/>
		</linearGradient>
		
			<path style="clip-path:url(#SVGID_00000025428236367232909840000012168851132423571642_);fill:url(#SVGID_00000132046259947622852530000009864048382767292564_);" d="
			M720.769-541.378c-179.032,87.706-301.451,116.597-368.649,233.783c-32.784,57.172-31.835,133.446,33.281,190.437
			c41.995,36.755,102.857,47.579,148.539,79.513c46.597,32.574,66.973,82.661,99.877,126.817
			c47.82,64.173,122.195,91.623,200.302,62.687c86.22-31.941,174.827-121.168,179.518-216.936
			c2.152-43.943-19.281-82.932-39.271-120.489c-25.214-47.371-31.16-94.977-45.762-145.629
			c-13.075-45.352-29.924-73.954-64.301-106.255c-31.206-29.322-70.059-54.523-113.456-59.843"/>
		<g style="clip-path:url(#SVGID_00000025428236367232909840000012168851132423571642_);">
			
				<linearGradient id="SVGID_00000127012080183814002490000002196014462594703503_" gradientUnits="userSpaceOnUse" x1="-120.7864" y1="486.1378" x2="207.5105" y2="486.1378" gradientTransform="matrix(0.9361 0.3518 -0.3518 0.9361 176.2953 20.4085)">
				<stop  offset="0" style="stop-color:#6AE7E9"/>
				<stop  offset="1" style="stop-color:#4AA2DA"/>
			</linearGradient>
			<path style="fill:url(#SVGID_00000127012080183814002490000002196014462594703503_);" d="M-65.146,319.503
				c27.469,73.456,153.945,72.41,213.601,131.299c59.656,58.889,57.244,135.574-5.648,205.883l-279.638-111.712"/>
		</g>
		
			<linearGradient id="SVGID_00000104692953498006206660000014476692771533764005_" gradientUnits="userSpaceOnUse" x1="55.1899" y1="321.5798" x2="85.9533" y2="321.5798">
			<stop  offset="0" style="stop-color:#6AE7E9"/>
			<stop  offset="1" style="stop-color:#4AA2DA"/>
		</linearGradient>
		
			<polygon style="clip-path:url(#SVGID_00000025428236367232909840000012168851132423571642_);fill:none;stroke:url(#SVGID_00000104692953498006206660000014476692771533764005_);stroke-miterlimit:10;" points="
			75.593,326.601 84.9,321.58 75.593,316.559 70.572,307.251 65.55,316.559 56.243,321.58 65.55,326.601 70.572,335.908 		"/>
		
			<linearGradient id="SVGID_00000122000891585435252120000006469082245010663087_" gradientUnits="userSpaceOnUse" x1="698.1215" y1="53.1801" x2="719.6336" y2="53.1801">
			<stop  offset="0" style="stop-color:#332737"/>
			<stop  offset="1" style="stop-color:#130517"/>
		</linearGradient>
		
			<polygon style="clip-path:url(#SVGID_00000025428236367232909840000012168851132423571642_);fill:url(#SVGID_00000122000891585435252120000006469082245010663087_);" points="
			712.647,56.949 719.634,53.18 712.647,49.411 708.878,42.424 705.108,49.411 698.122,53.18 705.108,56.949 708.878,63.936 		"/>
		
			<linearGradient id="SVGID_00000176011312843214189280000005315206658028565898_" gradientUnits="userSpaceOnUse" x1="545.4665" y1="136.7943" x2="582.4541" y2="136.7943">
			<stop  offset="0" style="stop-color:#6AE7E9"/>
			<stop  offset="1" style="stop-color:#4AA2DA"/>
		</linearGradient>
		
			<polygon style="clip-path:url(#SVGID_00000025428236367232909840000012168851132423571642_);fill:none;stroke:url(#SVGID_00000176011312843214189280000005315206658028565898_);stroke-miterlimit:10;" points="
			570.072,142.906 581.401,136.794 570.072,130.683 563.96,119.354 557.849,130.683 546.52,136.794 557.849,142.906 563.96,154.235 
					"/>
		
			<linearGradient id="SVGID_00000100346803750016712020000007574254911936408223_" gradientUnits="userSpaceOnUse" x1="91.7451" y1="354.4101" x2="102.2294" y2="354.4101">
			<stop  offset="0" style="stop-color:#6AE7E9"/>
			<stop  offset="1" style="stop-color:#4AA2DA"/>
		</linearGradient>
		
			<polygon style="clip-path:url(#SVGID_00000025428236367232909840000012168851132423571642_);fill:none;stroke:url(#SVGID_00000100346803750016712020000007574254911936408223_);stroke-miterlimit:10;" points="
			98.455,355.878 101.176,354.41 98.455,352.942 96.987,350.221 95.519,352.942 92.798,354.41 95.519,355.878 96.987,358.599 		"/>
		
			<linearGradient id="SVGID_00000090258370180997527430000014000738043677061262_" gradientUnits="userSpaceOnUse" x1="26.8842" y1="440.6806" x2="35.2623" y2="440.6806">
			<stop  offset="0" style="stop-color:#332737"/>
			<stop  offset="1" style="stop-color:#130517"/>
		</linearGradient>
		
			<polygon style="clip-path:url(#SVGID_00000025428236367232909840000012168851132423571642_);fill:url(#SVGID_00000090258370180997527430000014000738043677061262_);" points="
			32.541,442.148 35.262,440.681 32.541,439.213 31.073,436.492 29.605,439.213 26.884,440.681 29.605,442.148 31.073,444.87 		"/>
		
			<linearGradient id="SVGID_00000071556001612240543410000005526758992462257800_" gradientUnits="userSpaceOnUse" x1="688.6903" y1="182.9619" x2="699.1746" y2="182.9619">
			<stop  offset="0" style="stop-color:#6AE7E9"/>
			<stop  offset="1" style="stop-color:#4AA2DA"/>
		</linearGradient>
		
			<polygon style="clip-path:url(#SVGID_00000025428236367232909840000012168851132423571642_);fill:none;stroke:url(#SVGID_00000071556001612240543410000005526758992462257800_);stroke-miterlimit:10;" points="
			695.4,184.43 698.122,182.962 695.4,181.494 693.932,178.773 692.464,181.494 689.743,182.962 692.464,184.43 693.932,187.151 		
			"/>
		
			<linearGradient id="SVGID_00000051363486948417464980000015651849347644657078_" gradientUnits="userSpaceOnUse" x1="369.7568" y1="80.5903" x2="380.2411" y2="80.5903">
			<stop  offset="0" style="stop-color:#6AE7E9"/>
			<stop  offset="1" style="stop-color:#4AA2DA"/>
		</linearGradient>
		
			<polygon style="clip-path:url(#SVGID_00000025428236367232909840000012168851132423571642_);fill:none;stroke:url(#SVGID_00000051363486948417464980000015651849347644657078_);stroke-miterlimit:10;" points="
			376.467,82.058 379.188,80.59 376.467,79.122 374.999,76.401 373.531,79.122 370.81,80.59 373.531,82.058 374.999,84.779 		"/>
		
			<linearGradient id="SVGID_00000097467778922014886850000016372312538434937241_" gradientUnits="userSpaceOnUse" x1="38.0707" y1="363.3091" x2="51.0422" y2="363.3091">
			<stop  offset="0" style="stop-color:#6AE7E9"/>
			<stop  offset="1" style="stop-color:#4AA2DA"/>
		</linearGradient>
		
			<path style="clip-path:url(#SVGID_00000025428236367232909840000012168851132423571642_);fill:none;stroke:url(#SVGID_00000097467778922014886850000016372312538434937241_);stroke-miterlimit:10;" d="
			M50.542,363.309c0,3.306-2.68,5.986-5.986,5.986c-3.306,0-5.986-2.68-5.986-5.986c0-3.306,2.68-5.986,5.986-5.986
			C47.862,357.323,50.542,360.003,50.542,363.309z"/>
		
			<linearGradient id="SVGID_00000122699008549591146090000012130216965464400274_" gradientUnits="userSpaceOnUse" x1="657.382" y1="23.2042" x2="667.3582" y2="23.2042">
			<stop  offset="0" style="stop-color:#332737"/>
			<stop  offset="1" style="stop-color:#130517"/>
		</linearGradient>
		
			<circle style="clip-path:url(#SVGID_00000025428236367232909840000012168851132423571642_);fill:url(#SVGID_00000122699008549591146090000012130216965464400274_);" cx="662.37" cy="23.204" r="4.988"/>
		
			<linearGradient id="SVGID_00000166660270057252896070000014522649745692031895_" gradientUnits="userSpaceOnUse" x1="672.3463" y1="80.2566" x2="677.3345" y2="80.2566">
			<stop  offset="0" style="stop-color:#332737"/>
			<stop  offset="1" style="stop-color:#130517"/>
		</linearGradient>
		
			<path style="clip-path:url(#SVGID_00000025428236367232909840000012168851132423571642_);fill:url(#SVGID_00000166660270057252896070000014522649745692031895_);" d="
			M677.334,80.257c0,1.378-1.117,2.494-2.494,2.494s-2.494-1.117-2.494-2.494c0-1.377,1.117-2.494,2.494-2.494
			S677.334,78.879,677.334,80.257z"/>
		
			<linearGradient id="SVGID_00000066492271274330086350000014786802251401787019_" gradientUnits="userSpaceOnUse" x1="308.4303" y1="40.2295" x2="943.9657" y2="40.2295">
			<stop  offset="0" style="stop-color:#6AE7E9"/>
			<stop  offset="1" style="stop-color:#4AA2DA"/>
		</linearGradient>
		
			<path style="clip-path:url(#SVGID_00000025428236367232909840000012168851132423571642_);fill:none;stroke:url(#SVGID_00000066492271274330086350000014786802251401787019_);stroke-width:2;stroke-miterlimit:10;" d="
			M541.024-274.332C417.589-117.78,319.734-38.751,309.876,95.975c-4.81,65.729,29.058,134.078,112.425,157.272
			c53.766,14.958,113.317-1.626,168.32,7.391c56.105,9.198,96.151,45.531,144.925,71.096
			c70.883,37.154,149.812,29.709,207.701-30.181"/>
		
			<linearGradient id="SVGID_00000015329056731697421730000002111086479785460359_" gradientUnits="userSpaceOnUse" x1="324.8467" y1="5.0543" x2="960.41" y2="5.0543" gradientTransform="matrix(0.9986 -0.0522 0.0522 0.9986 -0.5525 33.4442)">
			<stop  offset="0" style="stop-color:#6AE7E9"/>
			<stop  offset="1" style="stop-color:#4AA2DA"/>
		</linearGradient>
		
			<path style="clip-path:url(#SVGID_00000025428236367232909840000012168851132423571642_);fill:none;stroke:url(#SVGID_00000015329056731697421730000002111086479785460359_);stroke-width:2;stroke-miterlimit:10;" d="
			M540.236-299.271C425.145-136.486,331.552-52.454,328.743,82.602c-1.37,65.89,36.021,132.378,120.485,151.186
			c54.474,12.13,113.077-7.541,168.476-1.409c56.508,6.255,107.055,38.675,166.505,53.537
			c77.641,19.41,133.094,31.738,187.777-31.094"/>
		
			<linearGradient id="SVGID_00000137818988565314623660000017893251914854993587_" gradientUnits="userSpaceOnUse" x1="427.4456" y1="102.5003" x2="435.0863" y2="102.5003">
			<stop  offset="0" style="stop-color:#6AE7E9"/>
			<stop  offset="1" style="stop-color:#4AA2DA"/>
		</linearGradient>
		
			<path style="clip-path:url(#SVGID_00000025428236367232909840000012168851132423571642_);fill:url(#SVGID_00000137818988565314623660000017893251914854993587_);" d="
			M435.086,102.5c0,2.11-1.71,3.82-3.82,3.82c-2.11,0-3.82-1.711-3.82-3.82s1.71-3.82,3.82-3.82
			C433.376,98.68,435.086,100.39,435.086,102.5z"/>
		
			<linearGradient id="SVGID_00000072998735148321836270000002898832971838558386_" gradientUnits="userSpaceOnUse" x1="399.8439" y1="129.3031" x2="414.4092" y2="129.3031">
			<stop  offset="0" style="stop-color:#6AE7E9"/>
			<stop  offset="1" style="stop-color:#4AA2DA"/>
		</linearGradient>
		
			<circle style="clip-path:url(#SVGID_00000025428236367232909840000012168851132423571642_);fill:none;stroke:url(#SVGID_00000072998735148321836270000002898832971838558386_);stroke-miterlimit:10;" cx="407.127" cy="129.303" r="6.783"/>
		<g style="clip-path:url(#SVGID_00000025428236367232909840000012168851132423571642_);">
			
				<linearGradient id="SVGID_00000100373011990557109100000018179420967447451837_" gradientUnits="userSpaceOnUse" x1="619.2156" y1="191.3922" x2="666.489" y2="191.3922">
				<stop  offset="0" style="stop-color:#6AE7E9"/>
				<stop  offset="1" style="stop-color:#4AA2DA"/>
			</linearGradient>
			
				<ellipse transform="matrix(0.1602 -0.9871 0.9871 0.1602 350.9581 795.286)" style="fill:none;stroke:url(#SVGID_00000100373011990557109100000018179420967447451837_);stroke-miterlimit:10;" cx="642.852" cy="191.392" rx="23.137" ry="23.137"/>
			
				<linearGradient id="SVGID_00000115473517970653040070000013822565421751566763_" gradientUnits="userSpaceOnUse" x1="627.0205" y1="191.3921" x2="658.6841" y2="191.3921">
				<stop  offset="0" style="stop-color:#6AE7E9"/>
				<stop  offset="1" style="stop-color:#4AA2DA"/>
			</linearGradient>
			
				<circle style="fill:none;stroke:url(#SVGID_00000115473517970653040070000013822565421751566763_);stroke-miterlimit:10;" cx="642.852" cy="191.392" r="15.332"/>
			
				<linearGradient id="SVGID_00000152979878544097747380000017259403946081572523_" gradientUnits="userSpaceOnUse" x1="634.3931" y1="191.3921" x2="651.3115" y2="191.3921">
				<stop  offset="0" style="stop-color:#6AE7E9"/>
				<stop  offset="1" style="stop-color:#4AA2DA"/>
			</linearGradient>
			
				<circle style="fill:none;stroke:url(#SVGID_00000152979878544097747380000017259403946081572523_);stroke-miterlimit:10;" cx="642.852" cy="191.392" r="7.959"/>
		</g>
		
			<linearGradient id="SVGID_00000173152192629777167380000003220665535518701449_" gradientUnits="userSpaceOnUse" x1="252.2386" y1="465.8878" x2="266.7087" y2="465.8878">
			<stop  offset="0" style="stop-color:#6AE7E9"/>
			<stop  offset="1" style="stop-color:#4AA2DA"/>
		</linearGradient>
		
			<path style="clip-path:url(#SVGID_00000025428236367232909840000012168851132423571642_);fill:none;stroke:url(#SVGID_00000173152192629777167380000003220665535518701449_);stroke-miterlimit:10;" d="
			M266.209,465.888c0,3.72-3.015,6.735-6.735,6.735s-6.735-3.015-6.735-6.735s3.015-6.735,6.735-6.735
			S266.209,462.168,266.209,465.888z"/>
		
			<linearGradient id="SVGID_00000091001303970026158030000001924737775655294855_" gradientUnits="userSpaceOnUse" x1="54.5457" y1="472.6227" x2="63.3705" y2="472.6227">
			<stop  offset="0" style="stop-color:#332737"/>
			<stop  offset="1" style="stop-color:#130517"/>
		</linearGradient>
		
			<path style="clip-path:url(#SVGID_00000025428236367232909840000012168851132423571642_);fill:url(#SVGID_00000091001303970026158030000001924737775655294855_);" d="
			M63.37,472.623c0,2.437-1.975,4.412-4.412,4.412s-4.412-1.975-4.412-4.412c0-2.437,1.975-4.413,4.412-4.413
			S63.37,470.186,63.37,472.623z"/>
		
			<linearGradient id="SVGID_00000149350295739941301270000016974547380128086939_" gradientUnits="userSpaceOnUse" x1="73.4195" y1="446.5139" x2="96.9872" y2="446.5139">
			<stop  offset="0" style="stop-color:#332737"/>
			<stop  offset="1" style="stop-color:#130517"/>
		</linearGradient>
		
			<circle style="clip-path:url(#SVGID_00000025428236367232909840000012168851132423571642_);fill:url(#SVGID_00000149350295739941301270000016974547380128086939_);" cx="85.203" cy="446.514" r="11.784"/>
		
			<linearGradient id="SVGID_00000027592879300047141620000001838446119502983085_" gradientUnits="userSpaceOnUse" x1="543.5506" y1="53.1801" x2="563.3215" y2="53.1801">
			<stop  offset="0" style="stop-color:#6AE7E9"/>
			<stop  offset="1" style="stop-color:#4AA2DA"/>
		</linearGradient>
		
			<circle style="clip-path:url(#SVGID_00000025428236367232909840000012168851132423571642_);fill:url(#SVGID_00000027592879300047141620000001838446119502983085_);" cx="553.436" cy="53.18" r="9.885"/>
		
			<linearGradient id="SVGID_00000147926883807529125310000008216132590371091368_" gradientUnits="userSpaceOnUse" x1="522.489" y1="75.8682" x2="530.3319" y2="75.8682">
			<stop  offset="0" style="stop-color:#6AE7E9"/>
			<stop  offset="1" style="stop-color:#4AA2DA"/>
		</linearGradient>
		
			<path style="clip-path:url(#SVGID_00000025428236367232909840000012168851132423571642_);fill:url(#SVGID_00000147926883807529125310000008216132590371091368_);" d="
			M530.332,75.868c0,2.166-1.756,3.922-3.922,3.922c-2.166,0-3.921-1.756-3.921-3.922c0-2.166,1.756-3.921,3.921-3.921
			C528.576,71.947,530.332,73.702,530.332,75.868z"/>
		
			<linearGradient id="SVGID_00000038404340824938200540000009705186953639228062_" gradientUnits="userSpaceOnUse" x1="590.9105" y1="96.0216" x2="595.4138" y2="96.0216">
			<stop  offset="0" style="stop-color:#6AE7E9"/>
			<stop  offset="1" style="stop-color:#4AA2DA"/>
		</linearGradient>
		
			<path style="clip-path:url(#SVGID_00000025428236367232909840000012168851132423571642_);fill:none;stroke:url(#SVGID_00000038404340824938200540000009705186953639228062_);stroke-miterlimit:10;" d="
			M594.914,96.022c0,0.967-0.784,1.752-1.752,1.752c-0.967,0-1.752-0.784-1.752-1.752s0.784-1.752,1.752-1.752
			C594.13,94.27,594.914,95.054,594.914,96.022z"/>
		
			<linearGradient id="SVGID_00000183964931674583630860000016631860638927184794_" gradientUnits="userSpaceOnUse" x1="150.5895" y1="410.6018" x2="155.5776" y2="410.6018">
			<stop  offset="0" style="stop-color:#6AE7E9"/>
			<stop  offset="1" style="stop-color:#4AA2DA"/>
		</linearGradient>
		
			<path style="clip-path:url(#SVGID_00000025428236367232909840000012168851132423571642_);fill:url(#SVGID_00000183964931674583630860000016631860638927184794_);" d="
			M155.578,410.602c0,1.378-1.117,2.494-2.494,2.494c-1.377,0-2.494-1.117-2.494-2.494c0-1.377,1.117-2.494,2.494-2.494
			C154.461,408.108,155.578,409.224,155.578,410.602z"/>
	</g>
</g>
</svg>
