<?xml version="1.0" encoding="utf-8"?>
<!-- Generator: Adobe Illustrator 27.5.0, SVG Export Plug-In . SVG Version: 6.00 Build 0)  -->
<svg version="1.1" xmlns="http://www.w3.org/2000/svg" xmlns:xlink="http://www.w3.org/1999/xlink" x="0px" y="0px"
	 viewBox="0 0 750 500" style="enable-background:new 0 0 750 500;" xml:space="preserve">
<g id="BACKGROUND">
	<linearGradient id="SVGID_1_" gradientUnits="userSpaceOnUse" x1="846.4031" y1="-60.9909" x2="17.7123" y2="485.7061">
		<stop  offset="0" style="stop-color:#240D66"/>
		<stop  offset="1" style="stop-color:#4386CE"/>
	</linearGradient>
	<rect x="-0.001" style="fill:url(#SVGID_1_);" width="750" height="500"/>
</g>
<g id="OBJECTS">
	<g>
		<defs>
			<rect id="SVGID_00000087370494766845273640000017047436907947604627_" x="-0.001" width="750" height="500"/>
		</defs>
		<clipPath id="SVGID_00000158002900535873238250000005117746710899940276_">
			<use xlink:href="#SVGID_00000087370494766845273640000017047436907947604627_"  style="overflow:visible;"/>
		</clipPath>
		
			<linearGradient id="SVGID_00000145740317491780569760000007250216751422521529_" gradientUnits="userSpaceOnUse" x1="45.1549" y1="483.1473" x2="281.9552" y2="332.4562" gradientTransform="matrix(0.9861 0.1661 -0.1661 0.9861 66.6734 -26.1824)">
			<stop  offset="0" style="stop-color:#E14FC6;stop-opacity:0"/>
			<stop  offset="1" style="stop-color:#4D1C70"/>
		</linearGradient>
		
			<path style="opacity:0.31;clip-path:url(#SVGID_00000158002900535873238250000005117746710899940276_);fill:url(#SVGID_00000145740317491780569760000007250216751422521529_);" d="
			M-45.199,48.302c64.951,27.34,109.75,70.425,137.572,135.585c13.239,31.007,16.426,64.089,32.689,94.234
			c13.029,24.15,36.707,36.906,62.149,45.579c73.197,24.95,164.952,3.22,191.071,94.75c12.896,45.194,52.054,94.302,125.266,106.687
			c38.891,6.579-33.895,101.311-11.256,133.056c18.179,25.49,26.512,47.209-12.496,45.284
			c-62.357-3.076-125.311-45.002-180.078-69.619c-77.047-34.632-154.175-31.289-236.539-30.486
			c-34.828,0.339-64.19-3.564-94.84-20.811c-25.642-14.429-49.36-31.306-72.417-49.551c-44.489-35.205-81.371-72.018-96.483-128.12"
			/>
		
			<linearGradient id="SVGID_00000039815822553584968230000003514364589130430868_" gradientUnits="userSpaceOnUse" x1="253.3399" y1="374.3305" x2="345.7115" y2="374.3305">
			<stop  offset="0" style="stop-color:#2A85FC"/>
			<stop  offset="1" style="stop-color:#ABE9FF"/>
		</linearGradient>
		
			<line style="clip-path:url(#SVGID_00000158002900535873238250000005117746710899940276_);fill:none;stroke:url(#SVGID_00000039815822553584968230000003514364589130430868_);stroke-width:4;stroke-linecap:round;stroke-miterlimit:10;" x1="255.34" y1="418.516" x2="343.711" y2="330.145"/>
		
			<linearGradient id="SVGID_00000183235658890668628280000002035109115562331303_" gradientUnits="userSpaceOnUse" x1="277.2828" y1="335.5385" x2="340.6259" y2="335.5385">
			<stop  offset="0" style="stop-color:#2A85FC"/>
			<stop  offset="1" style="stop-color:#ABE9FF"/>
		</linearGradient>
		
			<line style="clip-path:url(#SVGID_00000158002900535873238250000005117746710899940276_);fill:none;stroke:url(#SVGID_00000183235658890668628280000002035109115562331303_);stroke-width:4;stroke-linecap:round;stroke-miterlimit:10;" x1="279.283" y1="365.21" x2="338.626" y2="305.867"/>
		
			<linearGradient id="SVGID_00000108291096236380868850000013989151281105441152_" gradientUnits="userSpaceOnUse" x1="629.1445" y1="-9.7157" x2="533.0446" y2="294.2011">
			<stop  offset="0" style="stop-color:#E14FC6;stop-opacity:0"/>
			<stop  offset="1" style="stop-color:#4D1C70"/>
		</linearGradient>
		
			<path style="opacity:0.31;clip-path:url(#SVGID_00000158002900535873238250000005117746710899940276_);fill:url(#SVGID_00000108291096236380868850000013989151281105441152_);" d="
			M232.695-43.97C340.191-5.633,279.663,185.4,410.897,190.037c58.915,2.081,130.28-20.425,181.391,17.456
			c44.73,33.152,39.297,87.445,48.781,136.875c9.845,51.308,39.466,100.231,83.922,128.948
			c26.748,17.278,51.756,28.428,84.139,25.992c23.316-1.753,45.94-7.954,69.268-9.26c-5.328-9.538-2.602-25.868-3.476-36.685
			c-1.827-22.623-5.156-43.707-13.429-64.946c-12.453-31.969-33.968-61.298-37.256-96.197c-3.363-35.691,8.184-69.163,19.75-102.359
			c15.207-43.642,29.397-86.307,35.397-132.368c10.417-79.972-64.239-143.673-120.541-187.955"/>
		
			<linearGradient id="SVGID_00000143576337600531559270000013347171412917943728_" gradientUnits="userSpaceOnUse" x1="687.4604" y1="-32.9799" x2="631.0015" y2="16.2714">
			<stop  offset="0" style="stop-color:#E14FC6;stop-opacity:0"/>
			<stop  offset="1" style="stop-color:#4D1C70"/>
		</linearGradient>
		
			<path style="opacity:0.31;clip-path:url(#SVGID_00000158002900535873238250000005117746710899940276_);fill:url(#SVGID_00000143576337600531559270000013347171412917943728_);" d="
			M460.932-29.555c56.77,0.092,105.382,19.789,149.826,55.074c26.609,21.126,53.496,33.497,87.774,35.065
			c30.968,1.416,63.686-2.75,92.453-14.5c27.804-11.357,55.242-25.976,79.033-44.367c15.633-12.085,25.784-27.459,39.176-41.506
			c-13.21-12.576-30.501-24.797-45.086-36.069c-23.36-18.055-49.686-31.802-77.87-40.558c-21.369-6.639-43.52-13.537-65.569-17.557
			c-41.933-7.647-92.201,1.372-133.606,5.916"/>
		
			<linearGradient id="SVGID_00000165192570908503549670000006918718275380055466_" gradientUnits="userSpaceOnUse" x1="471.1476" y1="247.9749" x2="-14.3143" y2="568.2398">
			<stop  offset="0" style="stop-color:#3F47D8"/>
			<stop  offset="1" style="stop-color:#3EDEC5"/>
		</linearGradient>
		
			<path style="clip-path:url(#SVGID_00000158002900535873238250000005117746710899940276_);fill:url(#SVGID_00000165192570908503549670000006918718275380055466_);" d="
			M-48.398,205.89c16.527-12.129,53.414,1.876,67.14,11.294c30.681,21.05,32.778,52.797,38.143,86.205
			c8.41,52.379,38.604,88.689,93.877,92.101c32.664,2.016,65.249-4.531,97.866-1.187c34.343,3.521,61.982,22.74,84.169,47.989
			c31.285,35.603,51.863,86.034,100.423,101.423c49.223,15.599,114.727-16.858,159.062,9.211
			c-33.213,1.267-66.775-0.439-99.905-2.997c-93.941-7.252-188.107-11.816-282.142-3.333c-41.547,3.748-81.05,23.216-122.253,25.216
			c-29.499,1.432-60.117-7.599-85.496-21.88c-25.954-14.604-51.461-30.313-74.228-49.629c-22.321-18.938-19.38-34.653-16.297-62.571
			"/>
		
			<linearGradient id="SVGID_00000010301009666261404980000018021276160035828891_" gradientUnits="userSpaceOnUse" x1="686.6607" y1="35.0765" x2="460.0869" y2="184.5498" gradientTransform="matrix(0.9973 -0.0741 0.0741 0.9973 -8.8799 40.1705)">
			<stop  offset="0" style="stop-color:#3F47D8"/>
			<stop  offset="1" style="stop-color:#3EDEC5"/>
		</linearGradient>
		
			<path style="clip-path:url(#SVGID_00000158002900535873238250000005117746710899940276_);fill:url(#SVGID_00000010301009666261404980000018021276160035828891_);" d="
			M241.204-87.919c5.906-4.586,16.475,0.102,23.441,2.618c25.45,9.194,47.456,22.187,59.816,46.813
			c23.843,47.508,32.216,97.231,66.718,139.759c37.532,46.264,98.791,46.5,151.781,61.935
			c56.792,16.543,96.167,55.729,124.514,107.314c14.429,26.257,26.24,52.368,47.076,74.322
			c11.272,11.877,23.733,22.456,38.348,30.126c8.318,4.366,29.495,14.623,39.434,10.736c22.76-8.902-45.289-72.149-53.994-84.228
			c-15.195-21.084-26.125-42.37-30.207-68.432c-4.597-29.35,3.069-58.09,2.076-87.373C708.437,93.5,669.11,59.765,619.359,53.59
			c-27.817-3.453-56.41,2.325-84.262,2.695c-26.334,0.349-54.175-5.302-78.569-15.16c-28.816-11.643-57.284-29.218-71.968-57.565
			c-7.916-15.281-12.191-32.969-18.044-49.115c-11.124-30.69-23.147-47.551-45.859-71.633"/>
		
			<linearGradient id="SVGID_00000012470563722335840340000002962925738388363667_" gradientUnits="userSpaceOnUse" x1="271.5975" y1="307.1153" x2="-84.5648" y2="542.0797">
			<stop  offset="0" style="stop-color:#3F47D8"/>
			<stop  offset="1" style="stop-color:#3EDEC5"/>
		</linearGradient>
		
			<path style="clip-path:url(#SVGID_00000158002900535873238250000005117746710899940276_);fill:url(#SVGID_00000012470563722335840340000002962925738388363667_);" d="
			M-83.235,216.702c59.072-2.447,102.443,51.194,113.192,103.933c8.412,41.272,12.408,90.71,53.632,112.823
			c53.262,28.571,110.606,10.74,166.272,25.638c49.432,13.229,112.006,49.935,125.36,104.159
			c-18.418-9.002-40.253-7.451-60.205-5.601c-56.963,5.279-109.957,34.507-165.07,48.327
			c-57.457,14.407-129.261,25.872-184.347-5.88c-47.187-27.2-94.058-94.069-101.689-147.953"/>
		
			<linearGradient id="SVGID_00000144308360624915953690000016316173708046060434_" gradientUnits="userSpaceOnUse" x1="793.8642" y1="-107.3711" x2="539.7227" y2="60.2889">
			<stop  offset="0" style="stop-color:#3F47D8"/>
			<stop  offset="1" style="stop-color:#3EDEC5"/>
		</linearGradient>
		
			<path style="clip-path:url(#SVGID_00000158002900535873238250000005117746710899940276_);fill:url(#SVGID_00000144308360624915953690000016316173708046060434_);" d="
			M470.542-31.958c40.567-11.499,90.672-9.662,126.707,13.731c26.169,16.988,42.369,43.525,70.61,57.524
			c25.973,12.874,61.257,18.875,89.091,9.271c22.72-7.839,41.361-25.928,63.233-35.416c-2.202-11.168-8.295-23.365-13.001-33.725
			c-34.298-75.503-119.249-89.493-194.893-89.465"/>
		
			<linearGradient id="SVGID_00000009563900191181135410000009401213853875137676_" gradientUnits="userSpaceOnUse" x1="217.8944" y1="370.8513" x2="184.9131" y2="403.8326" gradientTransform="matrix(-1 0 0 -1 401.7271 775.7643)">
			<stop  offset="0" style="stop-color:#28ADE4"/>
			<stop  offset="1" style="stop-color:#99F4FC"/>
		</linearGradient>
		
			<circle style="clip-path:url(#SVGID_00000158002900535873238250000005117746710899940276_);fill:url(#SVGID_00000009563900191181135410000009401213853875137676_);" cx="200.864" cy="387.882" r="28.021"/>
		
			<linearGradient id="SVGID_00000005977415322718487360000001495767564615508653_" gradientUnits="userSpaceOnUse" x1="163.1408" y1="387.8821" x2="238.5863" y2="387.8821">
			<stop  offset="0" style="stop-color:#FFFFFF"/>
			<stop  offset="1" style="stop-color:#63CBFF"/>
		</linearGradient>
		
			<ellipse transform="matrix(0.7071 -0.7071 0.7071 0.7071 -215.4425 255.64)" style="clip-path:url(#SVGID_00000158002900535873238250000005117746710899940276_);fill:none;stroke:url(#SVGID_00000005977415322718487360000001495767564615508653_);stroke-width:2;stroke-miterlimit:10;" cx="200.864" cy="387.882" rx="36.723" ry="36.723"/>
		
			<linearGradient id="SVGID_00000113337568447335887290000011370084196941535149_" gradientUnits="userSpaceOnUse" x1="149.877" y1="253.8714" x2="103.2177" y2="300.5307">
			<stop  offset="0" style="stop-color:#28ADE4"/>
			<stop  offset="1" style="stop-color:#99F4FC"/>
		</linearGradient>
		
			<circle style="clip-path:url(#SVGID_00000158002900535873238250000005117746710899940276_);fill:url(#SVGID_00000113337568447335887290000011370084196941535149_);" cx="125.783" cy="277.965" r="39.641"/>
		
			<linearGradient id="SVGID_00000015324001714728963850000010880732864217741987_" gradientUnits="userSpaceOnUse" x1="96.8177" y1="277.9654" x2="154.7484" y2="277.9654">
			<stop  offset="0" style="stop-color:#FFFFFF"/>
			<stop  offset="1" style="stop-color:#63CBFF"/>
		</linearGradient>
		
			<ellipse transform="matrix(0.7071 -0.7071 0.7071 0.7071 -159.7102 170.3562)" style="clip-path:url(#SVGID_00000158002900535873238250000005117746710899940276_);fill:none;stroke:url(#SVGID_00000015324001714728963850000010880732864217741987_);stroke-width:2;stroke-miterlimit:10;" cx="125.783" cy="277.965" rx="27.965" ry="27.965"/>
		
			<linearGradient id="SVGID_00000178185210560237337230000005015471585059453328_" gradientUnits="userSpaceOnUse" x1="587.5101" y1="38.4699" x2="556.4039" y2="69.5761">
			<stop  offset="0" style="stop-color:#28ADE4"/>
			<stop  offset="1" style="stop-color:#99F4FC"/>
		</linearGradient>
		
			<circle style="clip-path:url(#SVGID_00000158002900535873238250000005117746710899940276_);fill:url(#SVGID_00000178185210560237337230000005015471585059453328_);" cx="571.448" cy="54.532" r="26.428"/>
		
			<linearGradient id="SVGID_00000170996971755171545150000003074032540531741360_" gradientUnits="userSpaceOnUse" x1="639.2543" y1="62.2766" x2="606.7982" y2="94.7328">
			<stop  offset="0" style="stop-color:#28ADE4"/>
			<stop  offset="1" style="stop-color:#99F4FC"/>
		</linearGradient>
		
			<circle style="clip-path:url(#SVGID_00000158002900535873238250000005117746710899940276_);fill:url(#SVGID_00000170996971755171545150000003074032540531741360_);" cx="611.217" cy="90.314" r="12.14"/>
		
			<linearGradient id="SVGID_00000140713199459576145050000008649058121539684224_" gradientUnits="userSpaceOnUse" x1="191.6284" y1="34.2109" x2="281.2828" y2="34.2109">
			<stop  offset="0" style="stop-color:#2A85FC"/>
			<stop  offset="1" style="stop-color:#ABE9FF"/>
		</linearGradient>
		
			<line style="clip-path:url(#SVGID_00000158002900535873238250000005117746710899940276_);fill:none;stroke:url(#SVGID_00000140713199459576145050000008649058121539684224_);stroke-width:4;stroke-linecap:round;stroke-miterlimit:10;" x1="279.283" y1="-8.616" x2="193.628" y2="77.038"/>
		
			<linearGradient id="SVGID_00000062884548391865226450000000005497152272989593_" gradientUnits="userSpaceOnUse" x1="279.5235" y1="41.8204" x2="310.9544" y2="41.8204">
			<stop  offset="0" style="stop-color:#2A85FC"/>
			<stop  offset="1" style="stop-color:#ABE9FF"/>
		</linearGradient>
		
			<line style="clip-path:url(#SVGID_00000158002900535873238250000005117746710899940276_);fill:none;stroke:url(#SVGID_00000062884548391865226450000000005497152272989593_);stroke-width:4;stroke-linecap:round;stroke-miterlimit:10;" x1="308.954" y1="28.105" x2="281.523" y2="55.536"/>
		
			<linearGradient id="SVGID_00000121973420536231373440000003575085845137659045_" gradientUnits="userSpaceOnUse" x1="471.5367" y1="475.5222" x2="589.5484" y2="475.5222">
			<stop  offset="0" style="stop-color:#2A85FC"/>
			<stop  offset="1" style="stop-color:#ABE9FF"/>
		</linearGradient>
		
			<line style="clip-path:url(#SVGID_00000158002900535873238250000005117746710899940276_);fill:none;stroke:url(#SVGID_00000121973420536231373440000003575085845137659045_);stroke-width:4;stroke-linecap:round;stroke-miterlimit:10;" x1="587.548" y1="418.516" x2="473.537" y2="532.528"/>
		
			<linearGradient id="SVGID_00000117642169700662164380000003127231929554963373_" gradientUnits="userSpaceOnUse" x1="542.3365" y1="470.6163" x2="567.6007" y2="470.6163">
			<stop  offset="0" style="stop-color:#2A85FC"/>
			<stop  offset="1" style="stop-color:#ABE9FF"/>
		</linearGradient>
		
			<line style="clip-path:url(#SVGID_00000158002900535873238250000005117746710899940276_);fill:none;stroke:url(#SVGID_00000117642169700662164380000003127231929554963373_);stroke-width:4;stroke-linecap:round;stroke-miterlimit:10;" x1="565.601" y1="459.984" x2="544.336" y2="481.248"/>
		
			<linearGradient id="SVGID_00000086667775918833147940000010902216532359793561_" gradientUnits="userSpaceOnUse" x1="654.0291" y1="-8.6163" x2="702.6351" y2="-8.6163">
			<stop  offset="0" style="stop-color:#FFFFFF"/>
			<stop  offset="1" style="stop-color:#63CBFF"/>
		</linearGradient>
		
			<circle style="clip-path:url(#SVGID_00000158002900535873238250000005117746710899940276_);fill:none;stroke:url(#SVGID_00000086667775918833147940000010902216532359793561_);stroke-width:2;stroke-miterlimit:10;" cx="678.332" cy="-8.616" r="23.303"/>
		
			<linearGradient id="SVGID_00000177454354432391406460000004782537067483475330_" gradientUnits="userSpaceOnUse" x1="654.0291" y1="105.8815" x2="662.8827" y2="105.8815">
			<stop  offset="0" style="stop-color:#FFFFFF"/>
			<stop  offset="1" style="stop-color:#63CBFF"/>
		</linearGradient>
		
			<circle style="clip-path:url(#SVGID_00000158002900535873238250000005117746710899940276_);fill:none;stroke:url(#SVGID_00000177454354432391406460000004782537067483475330_);stroke-width:2;stroke-miterlimit:10;" cx="658.456" cy="105.882" r="3.427"/>
		
			<linearGradient id="SVGID_00000141442004654143941350000000390033663973932416_" gradientUnits="userSpaceOnUse" x1="483.7932" y1="110.2708" x2="514.6312" y2="110.2708">
			<stop  offset="0" style="stop-color:#FFFFFF"/>
			<stop  offset="1" style="stop-color:#63CBFF"/>
		</linearGradient>
		
			<ellipse transform="matrix(0.9239 -0.3827 0.3827 0.9239 -4.1986 199.4339)" style="clip-path:url(#SVGID_00000158002900535873238250000005117746710899940276_);fill:none;stroke:url(#SVGID_00000141442004654143941350000000390033663973932416_);stroke-width:2;stroke-miterlimit:10;" cx="499.212" cy="110.271" rx="14.419" ry="14.419"/>
		
			<linearGradient id="SVGID_00000084527117244280367860000015586951597230264237_" gradientUnits="userSpaceOnUse" x1="27.8794" y1="449.5092" x2="50.8295" y2="449.5092">
			<stop  offset="0" style="stop-color:#FFFFFF"/>
			<stop  offset="1" style="stop-color:#63CBFF"/>
		</linearGradient>
		
			<ellipse transform="matrix(0.7071 -0.7071 0.7071 0.7071 -306.3243 159.486)" style="clip-path:url(#SVGID_00000158002900535873238250000005117746710899940276_);fill:none;stroke:url(#SVGID_00000084527117244280367860000015586951597230264237_);stroke-width:2;stroke-miterlimit:10;" cx="39.354" cy="449.509" rx="10.475" ry="10.475"/>
		
			<linearGradient id="SVGID_00000164484315036531746510000014807264202127630524_" gradientUnits="userSpaceOnUse" x1="144.6013" y1="338.467" x2="152.4585" y2="338.467">
			<stop  offset="0" style="stop-color:#FFFFFF"/>
			<stop  offset="1" style="stop-color:#63CBFF"/>
		</linearGradient>
		
			<path style="clip-path:url(#SVGID_00000158002900535873238250000005117746710899940276_);fill:none;stroke:url(#SVGID_00000164484315036531746510000014807264202127630524_);stroke-width:2;stroke-miterlimit:10;" d="
			M151.458,338.467c0,1.617-1.311,2.928-2.929,2.928c-1.617,0-2.929-1.311-2.929-2.928c0-1.617,1.311-2.929,2.929-2.929
			C150.147,335.539,151.458,336.85,151.458,338.467z"/>
		
			<linearGradient id="SVGID_00000085225250010949480120000003647248907784987305_" gradientUnits="userSpaceOnUse" x1="610.2167" y1="473.4521" x2="627.181" y2="473.4521">
			<stop  offset="0" style="stop-color:#FFFFFF"/>
			<stop  offset="1" style="stop-color:#63CBFF"/>
		</linearGradient>
		
			<circle style="clip-path:url(#SVGID_00000158002900535873238250000005117746710899940276_);fill:none;stroke:url(#SVGID_00000085225250010949480120000003647248907784987305_);stroke-width:2;stroke-miterlimit:10;" cx="618.699" cy="473.452" r="7.482"/>
		<g style="clip-path:url(#SVGID_00000158002900535873238250000005117746710899940276_);">
			<path style="fill:#FFFFFF;" d="M762.562,60.219c-1.071,1.071-2.809,1.071-3.88,0c-1.071-1.071-1.071-2.808,0-3.88
				c1.071-1.071,2.808-1.071,3.88,0C763.633,57.411,763.633,59.148,762.562,60.219z"/>
			<path style="fill:#FFFFFF;" d="M777.142,74.799c-1.071,1.071-2.809,1.071-3.88,0c-1.071-1.071-1.071-2.808,0-3.88
				c1.071-1.071,2.808-1.071,3.88,0C778.213,71.991,778.213,73.728,777.142,74.799z"/>
			<path style="fill:#FFFFFF;" d="M791.721,89.379c-1.071,1.071-2.808,1.071-3.88,0s-1.071-2.809,0-3.88
				c1.071-1.071,2.808-1.071,3.88,0C792.793,86.57,792.793,88.307,791.721,89.379z"/>
			<path style="fill:#FFFFFF;" d="M806.301,103.958c-1.071,1.071-2.809,1.071-3.88,0c-1.071-1.071-1.071-2.808,0-3.88
				c1.071-1.071,2.808-1.071,3.88,0C807.373,101.15,807.373,102.887,806.301,103.958z"/>
			<path style="fill:#FFFFFF;" d="M820.881,118.538c-1.071,1.071-2.808,1.071-3.88,0c-1.071-1.071-1.071-2.809,0-3.88
				c1.071-1.071,2.808-1.071,3.88,0C821.952,115.73,821.952,117.467,820.881,118.538z"/>
			<circle style="fill:#FFFFFF;" cx="750.393" cy="68.508" r="2.744"/>
			<circle style="fill:#FFFFFF;" cx="764.973" cy="83.088" r="2.743"/>
			<circle style="fill:#FFFFFF;" cx="779.553" cy="97.667" r="2.744"/>
			<circle style="fill:#FFFFFF;" cx="794.133" cy="112.247" r="2.743"/>
			<circle style="fill:#FFFFFF;" cx="808.712" cy="126.827" r="2.744"/>
			<path style="fill:#FFFFFF;" d="M742.105,80.677c-1.071,1.071-2.809,1.071-3.88,0c-1.071-1.071-1.071-2.808,0-3.88
				c1.071-1.071,2.808-1.071,3.88,0C743.176,77.868,743.176,79.605,742.105,80.677z"/>
			<path style="fill:#FFFFFF;" d="M756.684,95.256c-1.071,1.071-2.808,1.071-3.88,0c-1.071-1.071-1.071-2.809,0-3.88
				c1.071-1.071,2.808-1.071,3.88,0C757.756,92.448,757.756,94.185,756.684,95.256z"/>
			<path style="fill:#FFFFFF;" d="M771.264,109.836c-1.071,1.071-2.808,1.071-3.88,0c-1.071-1.071-1.071-2.808,0-3.88
				c1.071-1.071,2.808-1.071,3.88,0C772.336,107.028,772.336,108.765,771.264,109.836z"/>
			<path style="fill:#FFFFFF;" d="M785.844,124.416c-1.071,1.071-2.808,1.071-3.88,0c-1.071-1.071-1.071-2.809,0-3.88
				c1.071-1.071,2.809-1.071,3.88,0C786.915,121.607,786.915,123.344,785.844,124.416z"/>
			<path style="fill:#FFFFFF;" d="M800.424,138.995c-1.071,1.071-2.808,1.071-3.88,0c-1.071-1.071-1.071-2.808,0-3.88
				c1.071-1.071,2.808-1.071,3.88,0C801.495,136.187,801.495,137.924,800.424,138.995z"/>
			<circle style="fill:#FFFFFF;" cx="729.936" cy="88.965" r="2.743"/>
			<circle style="fill:#FFFFFF;" cx="744.516" cy="103.545" r="2.744"/>
			<circle style="fill:#FFFFFF;" cx="759.096" cy="118.125" r="2.743"/>
			<circle style="fill:#FFFFFF;" cx="773.675" cy="132.705" r="2.744"/>
			<circle style="fill:#FFFFFF;" cx="788.255" cy="147.284" r="2.743"/>
			<path style="fill:#FFFFFF;" d="M721.647,101.134c-1.071,1.071-2.808,1.071-3.88,0c-1.071-1.071-1.071-2.808,0-3.88
				c1.071-1.071,2.809-1.071,3.88,0C722.719,98.326,722.719,100.063,721.647,101.134z"/>
			<path style="fill:#FFFFFF;" d="M736.227,115.714c-1.071,1.071-2.808,1.071-3.88,0c-1.071-1.071-1.071-2.809,0-3.88
				c1.071-1.071,2.808-1.071,3.88,0C737.298,112.905,737.298,114.642,736.227,115.714z"/>
			<circle style="fill:#FFFFFF;" cx="748.867" cy="128.354" r="2.743"/>
			<path style="fill:#FFFFFF;" d="M765.386,144.873c-1.071,1.071-2.808,1.071-3.88,0c-1.071-1.071-1.071-2.809,0-3.88
				c1.071-1.071,2.809-1.071,3.88,0C766.458,142.065,766.458,143.802,765.386,144.873z"/>
			<path style="fill:#FFFFFF;" d="M779.966,159.453c-1.071,1.071-2.808,1.071-3.88,0c-1.071-1.071-1.071-2.809,0-3.88
				c1.071-1.071,2.808-1.071,3.88,0C781.038,156.644,781.038,158.382,779.966,159.453z"/>
			<path style="fill:#FFFFFF;" d="M711.419,111.363c-1.071,1.071-2.808,1.071-3.88,0c-1.071-1.071-1.071-2.809,0-3.88
				c1.071-1.071,2.809-1.071,3.88,0C712.49,108.554,712.49,110.291,711.419,111.363z"/>
			<circle style="fill:#FFFFFF;" cx="724.058" cy="124.002" r="2.743"/>
			<path style="fill:#FFFFFF;" d="M740.578,140.522c-1.071,1.071-2.809,1.071-3.88,0c-1.071-1.071-1.071-2.809,0-3.88
				c1.071-1.071,2.809-1.071,3.88,0C741.649,137.714,741.649,139.451,740.578,140.522z"/>
			<circle style="fill:#FFFFFF;" cx="753.218" cy="153.162" r="2.743"/>
			<path style="fill:#FFFFFF;" d="M769.738,169.682c-1.071,1.071-2.809,1.071-3.88,0c-1.071-1.071-1.071-2.809,0-3.88
				c1.071-1.071,2.808-1.071,3.88,0C770.809,166.873,770.809,168.61,769.738,169.682z"/>
			<path style="fill:#FFFFFF;" d="M701.19,121.591c-1.071,1.071-2.808,1.071-3.88,0c-1.071-1.071-1.071-2.809,0-3.88
				c1.071-1.071,2.809-1.071,3.88,0C702.261,118.783,702.261,120.52,701.19,121.591z"/>
			<circle style="fill:#FFFFFF;" cx="713.83" cy="134.231" r="2.743"/>
			<circle style="fill:#FFFFFF;" cx="728.409" cy="148.811" r="2.744"/>
			<circle style="fill:#FFFFFF;" cx="742.989" cy="163.391" r="2.743"/>
			<path style="fill:#FFFFFF;" d="M759.509,179.91c-1.071,1.071-2.809,1.071-3.88,0c-1.071-1.071-1.071-2.808,0-3.88
				c1.071-1.071,2.808-1.071,3.88,0C760.58,177.102,760.58,178.839,759.509,179.91z"/>
			<path style="fill:#FFFFFF;" d="M690.961,131.82c-1.071,1.071-2.808,1.071-3.88,0c-1.071-1.071-1.071-2.808,0-3.88
				c1.071-1.071,2.808-1.071,3.88,0S692.033,130.749,690.961,131.82z"/>
			<path style="fill:#FFFFFF;" d="M705.541,146.4c-1.071,1.071-2.809,1.071-3.88,0c-1.071-1.071-1.071-2.809,0-3.88
				c1.071-1.071,2.809-1.071,3.88,0C706.612,143.591,706.612,145.328,705.541,146.4z"/>
			<path style="fill:#FFFFFF;" d="M720.121,160.979c-1.071,1.071-2.808,1.071-3.88,0c-1.071-1.071-1.071-2.808,0-3.88
				c1.071-1.071,2.808-1.071,3.88,0C721.192,158.171,721.192,159.908,720.121,160.979z"/>
			<path style="fill:#FFFFFF;" d="M734.701,175.559c-1.071,1.071-2.808,1.071-3.88,0c-1.071-1.071-1.071-2.809,0-3.88
				c1.071-1.071,2.808-1.071,3.88,0C735.772,172.751,735.772,174.488,734.701,175.559z"/>
			<path style="fill:#FFFFFF;" d="M749.28,190.139c-1.071,1.071-2.809,1.071-3.88,0c-1.071-1.071-1.071-2.808,0-3.88
				c1.071-1.071,2.808-1.071,3.88,0C750.352,187.331,750.352,189.068,749.28,190.139z"/>
			<circle style="fill:#FFFFFF;" cx="678.793" cy="140.109" r="2.743"/>
			<circle style="fill:#FFFFFF;" cx="693.372" cy="154.688" r="2.744"/>
			<circle style="fill:#FFFFFF;" cx="707.952" cy="169.268" r="2.743"/>
			<circle style="fill:#FFFFFF;" cx="722.532" cy="183.848" r="2.744"/>
			<circle style="fill:#FFFFFF;" cx="737.112" cy="198.428" r="2.743"/>
			<path style="fill:#FFFFFF;" d="M670.504,152.277c-1.071,1.071-2.809,1.071-3.88,0c-1.071-1.071-1.071-2.809,0-3.88
				c1.071-1.071,2.808-1.071,3.88,0C671.575,149.469,671.575,151.206,670.504,152.277z"/>
			<path style="fill:#FFFFFF;" d="M685.084,166.857c-1.071,1.071-2.809,1.071-3.88,0c-1.071-1.071-1.071-2.808,0-3.88
				c1.071-1.071,2.808-1.071,3.88,0S686.155,165.786,685.084,166.857z"/>
			<path style="fill:#FFFFFF;" d="M699.663,181.437c-1.071,1.071-2.808,1.071-3.88,0s-1.071-2.809,0-3.88
				c1.071-1.071,2.808-1.071,3.88,0C700.735,178.628,700.735,180.365,699.663,181.437z"/>
			<path style="fill:#FFFFFF;" d="M714.243,196.016c-1.071,1.071-2.809,1.071-3.88,0c-1.071-1.071-1.071-2.808,0-3.88
				c1.071-1.071,2.808-1.071,3.88,0S715.315,194.945,714.243,196.016z"/>
			<path style="fill:#FFFFFF;" d="M728.823,210.596c-1.071,1.071-2.808,1.071-3.88,0s-1.071-2.809,0-3.88
				c1.071-1.071,2.809-1.071,3.88,0C729.894,207.788,729.894,209.525,728.823,210.596z"/>
			<circle style="fill:#FFFFFF;" cx="658.335" cy="160.566" r="2.744"/>
			<circle style="fill:#FFFFFF;" cx="672.915" cy="175.146" r="2.743"/>
			<circle style="fill:#FFFFFF;" cx="687.495" cy="189.726" r="2.744"/>
			<circle style="fill:#FFFFFF;" cx="702.075" cy="204.305" r="2.743"/>
			<circle style="fill:#FFFFFF;" cx="716.654" cy="218.885" r="2.744"/>
			<path style="fill:#FFFFFF;" d="M650.047,172.735c-1.071,1.071-2.809,1.071-3.88,0c-1.071-1.071-1.071-2.809,0-3.88
				c1.071-1.071,2.808-1.071,3.88,0S651.118,171.663,650.047,172.735z"/>
			<path style="fill:#FFFFFF;" d="M664.626,187.314c-1.071,1.071-2.808,1.071-3.88,0c-1.071-1.071-1.071-2.809,0-3.88
				c1.071-1.071,2.808-1.071,3.88,0C665.698,184.506,665.698,186.243,664.626,187.314z"/>
			<path style="fill:#FFFFFF;" d="M679.206,201.894c-1.071,1.071-2.808,1.071-3.88,0c-1.071-1.071-1.071-2.809,0-3.88
				c1.071-1.071,2.808-1.071,3.88,0S680.277,200.823,679.206,201.894z"/>
			<path style="fill:#FFFFFF;" d="M693.786,216.474c-1.071,1.071-2.808,1.071-3.88,0c-1.071-1.071-1.071-2.809,0-3.88
				c1.071-1.071,2.809-1.071,3.88,0C694.857,213.665,694.857,215.402,693.786,216.474z"/>
			<path style="fill:#FFFFFF;" d="M708.365,231.054c-1.071,1.071-2.808,1.071-3.88,0c-1.071-1.071-1.071-2.808,0-3.88
				c1.071-1.071,2.809-1.071,3.88,0C709.437,228.245,709.437,229.982,708.365,231.054z"/>
		</g>
		<g style="clip-path:url(#SVGID_00000158002900535873238250000005117746710899940276_);">
			<circle style="fill:#FFFFFF;" cx="4.194" cy="303.15" r="2.743"/>
			<path style="fill:#FFFFFF;" d="M20.713,319.67c-1.071,1.071-2.808,1.071-3.88,0c-1.071-1.071-1.071-2.808,0-3.88
				c1.071-1.071,2.809-1.071,3.88,0C21.785,316.861,21.785,318.598,20.713,319.67z"/>
			<path style="fill:#FFFFFF;" d="M35.293,334.25c-1.071,1.071-2.808,1.071-3.88,0c-1.071-1.071-1.071-2.809,0-3.88
				c1.071-1.071,2.808-1.071,3.88,0C36.365,331.441,36.365,333.178,35.293,334.25z"/>
			<path style="fill:#FFFFFF;" d="M49.873,348.829c-1.071,1.071-2.809,1.071-3.88,0c-1.071-1.071-1.071-2.808,0-3.88
				c1.071-1.071,2.809-1.071,3.88,0C50.944,346.021,50.944,347.758,49.873,348.829z"/>
			<path style="fill:#FFFFFF;" d="M64.453,363.409c-1.071,1.071-2.808,1.071-3.88,0c-1.071-1.071-1.071-2.809,0-3.88
				c1.071-1.071,2.808-1.071,3.88,0C65.524,360.601,65.524,362.338,64.453,363.409z"/>
			<path style="fill:#FFFFFF;" d="M-4.095,315.319c-1.071,1.071-2.808,1.071-3.88,0c-1.071-1.071-1.071-2.808,0-3.88
				s2.808-1.071,3.88,0S-3.024,314.247-4.095,315.319z"/>
			<path style="fill:#FFFFFF;" d="M10.485,329.898c-1.071,1.071-2.809,1.071-3.88,0s-1.071-2.809,0-3.88
				c1.071-1.071,2.808-1.071,3.88,0C11.556,327.09,11.556,328.827,10.485,329.898z"/>
			<circle style="fill:#FFFFFF;" cx="23.125" cy="342.538" r="2.743"/>
			<path style="fill:#FFFFFF;" d="M39.644,359.058c-1.071,1.071-2.808,1.071-3.88,0c-1.071-1.071-1.071-2.809,0-3.88
				c1.071-1.071,2.808-1.071,3.88,0C40.716,356.25,40.716,357.987,39.644,359.058z"/>
			<circle style="fill:#FFFFFF;" cx="52.284" cy="371.698" r="2.743"/>
			<path style="fill:#FFFFFF;" d="M-14.324,325.547c-1.071,1.071-2.808,1.071-3.88,0c-1.071-1.071-1.071-2.808,0-3.88
				c1.071-1.071,2.809-1.071,3.88,0C-13.252,322.739-13.252,324.476-14.324,325.547z"/>
			<path style="fill:#FFFFFF;" d="M0.256,340.127c-1.071,1.071-2.809,1.071-3.88,0c-1.071-1.071-1.071-2.809,0-3.88
				c1.071-1.071,2.808-1.071,3.88,0C1.327,337.319,1.327,339.056,0.256,340.127z"/>
			<path style="fill:#FFFFFF;" d="M14.836,354.707c-1.071,1.071-2.808,1.071-3.88,0c-1.071-1.071-1.071-2.808,0-3.88
				c1.071-1.071,2.808-1.071,3.88,0C15.907,351.898,15.907,353.635,14.836,354.707z"/>
			<path style="fill:#FFFFFF;" d="M29.416,369.287c-1.071,1.071-2.809,1.071-3.88,0c-1.071-1.071-1.071-2.809,0-3.88
				c1.071-1.071,2.808-1.071,3.88,0S30.487,368.215,29.416,369.287z"/>
			<path style="fill:#FFFFFF;" d="M43.995,383.866c-1.071,1.071-2.808,1.071-3.88,0c-1.071-1.071-1.071-2.808,0-3.88
				s2.808-1.071,3.88,0C45.067,381.058,45.067,382.795,43.995,383.866z"/>
			<path style="fill:#FFFFFF;" d="M-24.552,335.776c-1.071,1.071-2.809,1.071-3.88,0c-1.071-1.071-1.071-2.809,0-3.88
				c1.071-1.071,2.809-1.071,3.88,0C-23.481,332.968-23.481,334.705-24.552,335.776z"/>
			<path style="fill:#FFFFFF;" d="M-9.973,350.356c-1.071,1.071-2.808,1.071-3.88,0c-1.071-1.071-1.071-2.808,0-3.88
				c1.071-1.071,2.808-1.071,3.88,0C-8.901,347.547-8.901,349.284-9.973,350.356z"/>
			<path style="fill:#FFFFFF;" d="M4.607,364.936c-1.071,1.071-2.809,1.071-3.88,0c-1.071-1.071-1.071-2.809,0-3.88
				c1.071-1.071,2.809-1.071,3.88,0C5.679,362.127,5.679,363.864,4.607,364.936z"/>
			<path style="fill:#FFFFFF;" d="M19.187,379.515c-1.071,1.071-2.808,1.071-3.88,0c-1.071-1.071-1.071-2.808,0-3.88
				s2.808-1.071,3.88,0C20.258,376.707,20.258,378.444,19.187,379.515z"/>
			<path style="fill:#FFFFFF;" d="M33.767,394.095c-1.071,1.071-2.809,1.071-3.88,0c-1.071-1.071-1.071-2.809,0-3.88
				c1.071-1.071,2.809-1.071,3.88,0C34.838,391.287,34.838,393.024,33.767,394.095z"/>
			<path style="fill:#FFFFFF;" d="M-34.781,346.005c-1.071,1.071-2.809,1.071-3.88,0c-1.071-1.071-1.071-2.809,0-3.88
				c1.071-1.071,2.808-1.071,3.88,0C-33.71,343.196-33.71,344.933-34.781,346.005z"/>
			<path style="fill:#FFFFFF;" d="M-20.201,360.585c-1.071,1.071-2.808,1.071-3.88,0s-1.071-2.808,0-3.88
				c1.071-1.071,2.809-1.071,3.88,0C-19.13,357.776-19.13,359.513-20.201,360.585z"/>
			<path style="fill:#FFFFFF;" d="M-5.622,375.164c-1.071,1.071-2.809,1.071-3.88,0c-1.071-1.071-1.071-2.809,0-3.88
				c1.071-1.071,2.808-1.071,3.88,0C-4.55,372.356-4.55,374.093-5.622,375.164z"/>
			<path style="fill:#FFFFFF;" d="M8.958,389.744c-1.071,1.071-2.808,1.071-3.88,0c-1.071-1.071-1.071-2.808,0-3.88
				s2.808-1.071,3.88,0C10.03,386.936,10.03,388.673,8.958,389.744z"/>
			<path style="fill:#FFFFFF;" d="M23.538,404.324c-1.071,1.071-2.809,1.071-3.88,0c-1.071-1.071-1.071-2.809,0-3.88
				c1.071-1.071,2.809-1.071,3.88,0C24.609,401.515,24.609,403.252,23.538,404.324z"/>
			<path style="fill:#FFFFFF;" d="M-45.01,356.233c-1.071,1.071-2.808,1.071-3.88,0c-1.071-1.071-1.071-2.809,0-3.88
				c1.071-1.071,2.808-1.071,3.88,0C-43.938,353.425-43.938,355.162-45.01,356.233z"/>
			<path style="fill:#FFFFFF;" d="M-30.43,370.813c-1.071,1.071-2.809,1.071-3.88,0s-1.071-2.809,0-3.88
				c1.071-1.071,2.808-1.071,3.88,0C-29.358,368.005-29.358,369.742-30.43,370.813z"/>
			<path style="fill:#FFFFFF;" d="M-15.85,385.393c-1.071,1.071-2.808,1.071-3.88,0c-1.071-1.071-1.071-2.808,0-3.88
				c1.071-1.071,2.808-1.071,3.88,0C-14.779,382.585-14.779,384.322-15.85,385.393z"/>
			<path style="fill:#FFFFFF;" d="M-1.27,399.973c-1.071,1.071-2.808,1.071-3.88,0c-1.071-1.071-1.071-2.808,0-3.88
				c1.071-1.071,2.809-1.071,3.88,0C-0.199,397.164-0.199,398.901-1.27,399.973z"/>
			<path style="fill:#FFFFFF;" d="M13.309,414.552c-1.071,1.071-2.808,1.071-3.88,0c-1.071-1.071-1.071-2.808,0-3.88
				c1.071-1.071,2.808-1.071,3.88,0C14.381,411.744,14.381,413.481,13.309,414.552z"/>
			<path style="fill:#FFFFFF;" d="M-55.238,366.462c-1.071,1.071-2.808,1.071-3.88,0c-1.071-1.071-1.071-2.808,0-3.88
				c1.071-1.071,2.808-1.071,3.88,0C-54.167,363.654-54.167,365.391-55.238,366.462z"/>
			<path style="fill:#FFFFFF;" d="M-40.659,381.042c-1.071,1.071-2.808,1.071-3.88,0c-1.071-1.071-1.071-2.809,0-3.88
				c1.071-1.071,2.809-1.071,3.88,0C-39.587,378.233-39.587,379.97-40.659,381.042z"/>
			<circle style="fill:#FFFFFF;" cx="-28.019" cy="393.682" r="2.743"/>
			<path style="fill:#FFFFFF;" d="M-11.499,410.201c-1.071,1.071-2.809,1.071-3.88,0c-1.071-1.071-1.071-2.808,0-3.88
				c1.071-1.071,2.808-1.071,3.88,0S-10.428,409.13-11.499,410.201z"/>
			<circle style="fill:#FFFFFF;" cx="1.141" cy="422.841" r="2.743"/>
			<circle style="fill:#FFFFFF;" cx="-67.407" cy="374.751" r="2.743"/>
			<path style="fill:#FFFFFF;" d="M-50.887,391.271c-1.071,1.071-2.808,1.071-3.88,0c-1.071-1.071-1.071-2.809,0-3.88
				c1.071-1.071,2.808-1.071,3.88,0C-49.816,388.462-49.816,390.199-50.887,391.271z"/>
			<path style="fill:#FFFFFF;" d="M-36.307,405.85c-1.071,1.071-2.809,1.071-3.88,0c-1.071-1.071-1.071-2.808,0-3.88
				c1.071-1.071,2.809-1.071,3.88,0C-35.236,403.042-35.236,404.779-36.307,405.85z"/>
			<path style="fill:#FFFFFF;" d="M-21.728,420.43c-1.071,1.071-2.808,1.071-3.88,0c-1.071-1.071-1.071-2.809,0-3.88
				c1.071-1.071,2.808-1.071,3.88,0S-20.656,419.359-21.728,420.43z"/>
			<path style="fill:#FFFFFF;" d="M-7.148,435.01c-1.071,1.071-2.809,1.071-3.88,0s-1.071-2.809,0-3.88
				c1.071-1.071,2.808-1.071,3.88,0C-6.077,432.201-6.077,433.938-7.148,435.01z"/>
			<path style="fill:#FFFFFF;" d="M-75.696,386.919c-1.071,1.071-2.809,1.071-3.88,0c-1.071-1.071-1.071-2.809,0-3.88
				c1.071-1.071,2.809-1.071,3.88,0C-74.624,384.111-74.624,385.848-75.696,386.919z"/>
			<circle style="fill:#FFFFFF;" cx="-63.056" cy="399.559" r="2.743"/>
			<path style="fill:#FFFFFF;" d="M-46.536,416.079c-1.071,1.071-2.808,1.071-3.88,0c-1.071-1.071-1.071-2.809,0-3.88
				c1.071-1.071,2.808-1.071,3.88,0C-45.465,413.271-45.465,415.008-46.536,416.079z"/>
			<circle style="fill:#FFFFFF;" cx="-33.896" cy="428.719" r="2.743"/>
			<circle style="fill:#FFFFFF;" cx="-19.317" cy="443.299" r="2.744"/>
			<circle style="fill:#FFFFFF;" cx="-87.864" cy="395.208" r="2.743"/>
			<path style="fill:#FFFFFF;" d="M-71.345,411.728c-1.071,1.071-2.809,1.071-3.88,0c-1.071-1.071-1.071-2.808,0-3.88
				c1.071-1.071,2.809-1.071,3.88,0C-70.273,408.919-70.273,410.656-71.345,411.728z"/>
			<path style="fill:#FFFFFF;" d="M-56.765,426.308c-1.071,1.071-2.808,1.071-3.88,0c-1.071-1.071-1.071-2.809,0-3.88
				c1.071-1.071,2.808-1.071,3.88,0C-55.694,423.499-55.694,425.236-56.765,426.308z"/>
			<path style="fill:#FFFFFF;" d="M-42.185,440.887c-1.071,1.071-2.808,1.071-3.88,0c-1.071-1.071-1.071-2.808,0-3.88
				s2.808-1.071,3.88,0C-41.114,438.079-41.114,439.816-42.185,440.887z"/>
			<path style="fill:#FFFFFF;" d="M-27.605,455.467c-1.071,1.071-2.809,1.071-3.88,0c-1.071-1.071-1.071-2.809,0-3.88
				c1.071-1.071,2.808-1.071,3.88,0C-26.534,452.659-26.534,454.396-27.605,455.467z"/>
			<path style="fill:#FFFFFF;" d="M-96.153,407.377c-1.071,1.071-2.808,1.071-3.88,0c-1.071-1.071-1.071-2.808,0-3.88
				c1.071-1.071,2.808-1.071,3.88,0C-95.082,404.568-95.082,406.306-96.153,407.377z"/>
			<path style="fill:#FFFFFF;" d="M-81.573,421.957c-1.071,1.071-2.808,1.071-3.88,0c-1.071-1.071-1.071-2.809,0-3.88
				c1.071-1.071,2.809-1.071,3.88,0C-80.502,419.148-80.502,420.885-81.573,421.957z"/>
			<circle style="fill:#FFFFFF;" cx="-68.934" cy="434.596" r="2.743"/>
			<path style="fill:#FFFFFF;" d="M-52.414,451.116c-1.071,1.071-2.809,1.071-3.88,0c-1.071-1.071-1.071-2.809,0-3.88
				c1.071-1.071,2.809-1.071,3.88,0C-51.342,448.308-51.342,450.045-52.414,451.116z"/>
			<circle style="fill:#FFFFFF;" cx="-39.774" cy="463.756" r="2.743"/>
			<path style="fill:#FFFFFF;" d="M-106.382,417.605c-1.071,1.071-2.809,1.071-3.88,0c-1.071-1.071-1.071-2.808,0-3.88
				c1.071-1.071,2.808-1.071,3.88,0C-105.31,414.797-105.31,416.534-106.382,417.605z"/>
			<path style="fill:#FFFFFF;" d="M-91.802,432.185c-1.071,1.071-2.808,1.071-3.88,0c-1.071-1.071-1.071-2.809,0-3.88
				c1.071-1.071,2.808-1.071,3.88,0C-90.731,429.377-90.731,431.114-91.802,432.185z"/>
			<path style="fill:#FFFFFF;" d="M-77.222,446.765c-1.071,1.071-2.808,1.071-3.88,0c-1.071-1.071-1.071-2.808,0-3.88
				c1.071-1.071,2.808-1.071,3.88,0C-76.151,443.957-76.151,445.694-77.222,446.765z"/>
			<path style="fill:#FFFFFF;" d="M-62.643,461.345c-1.071,1.071-2.808,1.071-3.88,0c-1.071-1.071-1.071-2.809,0-3.88
				c1.071-1.071,2.808-1.071,3.88,0C-61.571,458.536-61.571,460.273-62.643,461.345z"/>
			<path style="fill:#FFFFFF;" d="M-48.063,475.924c-1.071,1.071-2.808,1.071-3.88,0s-1.071-2.808,0-3.88
				c1.071-1.071,2.808-1.071,3.88,0C-46.991,473.116-46.991,474.853-48.063,475.924z"/>
		</g>
		<path style="clip-path:url(#SVGID_00000158002900535873238250000005117746710899940276_);fill:#FFFFFF;" d="M71.618,479.909
			c0,1.757-1.424,3.181-3.181,3.181s-3.181-1.424-3.181-3.181c0-1.757,1.424-3.181,3.181-3.181S71.618,478.152,71.618,479.909z"/>
		<path style="clip-path:url(#SVGID_00000158002900535873238250000005117746710899940276_);fill:#FFFFFF;" d="M237.456,427.347
			c0,1.645-1.334,2.979-2.979,2.979s-2.979-1.334-2.979-2.979c0-1.646,1.334-2.979,2.979-2.979S237.456,425.702,237.456,427.347z"/>
		<path style="clip-path:url(#SVGID_00000158002900535873238250000005117746710899940276_);fill:#FFFFFF;" d="M535.284,88.202
			c0,1.309-1.062,2.371-2.371,2.371s-2.371-1.062-2.371-2.371c0-1.309,1.062-2.371,2.371-2.371S535.284,86.893,535.284,88.202z"/>
		<path style="clip-path:url(#SVGID_00000158002900535873238250000005117746710899940276_);fill:#FFFFFF;" d="M125.643,25.066
			c0,1.678-1.36,3.039-3.039,3.039s-3.039-1.36-3.039-3.039s1.361-3.039,3.039-3.039S125.643,23.388,125.643,25.066z"/>
		
			<circle style="clip-path:url(#SVGID_00000158002900535873238250000005117746710899940276_);fill:#FFFFFF;" cx="90.532" cy="26.417" r="4.39"/>
		
			<linearGradient id="SVGID_00000011742533332607573770000000830010792065396907_" gradientUnits="userSpaceOnUse" x1="49.7616" y1="11.4151" x2="91.2387" y2="11.4151">
			<stop  offset="0" style="stop-color:#FFFFFF"/>
			<stop  offset="1" style="stop-color:#63CBFF"/>
		</linearGradient>
		
			<line style="clip-path:url(#SVGID_00000158002900535873238250000005117746710899940276_);fill:none;stroke:url(#SVGID_00000011742533332607573770000000830010792065396907_);stroke-width:2;stroke-miterlimit:10;" x1="90.532" y1="-8.616" x2="50.469" y2="31.447"/>
		
			<linearGradient id="SVGID_00000138570233055170802860000016137718090482802865_" gradientUnits="userSpaceOnUse" x1="41.5649" y1="18.4655" x2="50.5366" y2="18.4655">
			<stop  offset="0" style="stop-color:#FFFFFF"/>
			<stop  offset="1" style="stop-color:#63CBFF"/>
		</linearGradient>
		
			<line style="clip-path:url(#SVGID_00000158002900535873238250000005117746710899940276_);fill:none;stroke:url(#SVGID_00000138570233055170802860000016137718090482802865_);stroke-width:2;stroke-miterlimit:10;" x1="49.829" y1="14.687" x2="42.272" y2="22.244"/>
		
			<linearGradient id="SVGID_00000178177128223051027200000000016024270965556367_" gradientUnits="userSpaceOnUse" x1="647.7119" y1="465.1667" x2="660.65" y2="465.1667">
			<stop  offset="0" style="stop-color:#FFFFFF"/>
			<stop  offset="1" style="stop-color:#63CBFF"/>
		</linearGradient>
		
			<line style="clip-path:url(#SVGID_00000158002900535873238250000005117746710899940276_);fill:none;stroke:url(#SVGID_00000178177128223051027200000000016024270965556367_);stroke-width:2;stroke-miterlimit:10;" x1="659.943" y1="459.405" x2="648.419" y2="470.929"/>
		
			<linearGradient id="SVGID_00000116953181486820158980000014992139345925379457_" gradientUnits="userSpaceOnUse" x1="277.1469" y1="311.0973" x2="288.9686" y2="311.0973">
			<stop  offset="0" style="stop-color:#FFFFFF"/>
			<stop  offset="1" style="stop-color:#63CBFF"/>
		</linearGradient>
		
			<line style="clip-path:url(#SVGID_00000158002900535873238250000005117746710899940276_);fill:none;stroke:url(#SVGID_00000116953181486820158980000014992139345925379457_);stroke-width:2;stroke-miterlimit:10;" x1="288.262" y1="305.894" x2="277.854" y2="316.301"/>
		
			<linearGradient id="SVGID_00000136397056967005647740000015896545106239505075_" gradientUnits="userSpaceOnUse" x1="41.5649" y1="201.6362" x2="51.5324" y2="201.6362">
			<stop  offset="0" style="stop-color:#FFFFFF"/>
			<stop  offset="1" style="stop-color:#63CBFF"/>
		</linearGradient>
		
			<line style="clip-path:url(#SVGID_00000158002900535873238250000005117746710899940276_);fill:none;stroke:url(#SVGID_00000136397056967005647740000015896545106239505075_);stroke-width:2;stroke-miterlimit:10;" x1="42.272" y1="205.913" x2="50.825" y2="197.36"/>
		
			<linearGradient id="SVGID_00000036216549503777447990000000567014663907265452_" gradientUnits="userSpaceOnUse" x1="444.8859" y1="60.6502" x2="457.1146" y2="60.6502">
			<stop  offset="0" style="stop-color:#FFFFFF"/>
			<stop  offset="1" style="stop-color:#63CBFF"/>
		</linearGradient>
		
			<path style="clip-path:url(#SVGID_00000158002900535873238250000005117746710899940276_);fill:none;stroke:url(#SVGID_00000036216549503777447990000000567014663907265452_);stroke-width:2;stroke-miterlimit:10;" d="
			M456.115,60.65c0,2.825-2.29,5.114-5.114,5.114c-2.825,0-5.114-2.29-5.114-5.114c0-2.825,2.29-5.114,5.114-5.114
			C453.825,55.536,456.115,57.826,456.115,60.65z"/>
	</g>
</g>
</svg>
